<svg width="112" height="104" viewBox="0 0 112 104" fill="none" xmlns="http://www.w3.org/2000/svg">
<g clip-path="url(#clip0_325_411)">
<path d="M85.0099 2.07855C85.5502 2.08105 86.2131 2.09605 86.8907 2.11865C88.222 2.16295 89.705 2.24134 90.4356 2.33244C92.9861 2.65064 94.5794 3.04195 96.9024 3.92425C102.553 6.07025 106.488 10.5606 108.502 16.9066C109.532 20.1522 109.809 22.0323 109.874 26.0033C109.936 29.7787 109.72 32.3612 108.997 36.5531C108.022 42.2084 105.808 50.1487 103.078 57.8402C99.9431 66.6726 96.4528 73.515 91.6241 80.2582C90.8188 81.3828 89.7384 82.9006 89.2247 83.6293C88.6513 84.4425 88.239 85.031 87.8644 85.4066C87.3371 85.9353 86.8476 86.0951 86.4112 86.226C85.4435 86.5161 83.9655 86.5346 82.7735 86.4496C82.1454 86.4049 81.5151 86.3251 80.9728 86.2104C80.7024 86.1532 80.429 86.0825 80.1777 85.9926C79.9499 85.911 79.6321 85.7763 79.3517 85.5492L79.1046 85.349L78.2638 84.6684L78.6456 83.6557L78.8497 83.1127C78.9802 82.7662 79.2781 82.0713 79.5157 81.5531C79.6854 81.1833 79.8792 80.7548 80.1476 80.4233C80.5065 79.9798 80.9182 79.788 81.1974 79.6645C81.2422 79.6446 81.235 79.645 81.2178 79.6576C81.2049 79.667 81.2237 79.6568 81.2872 79.5854C81.441 79.4122 81.6776 79.0903 82.171 78.3803C86.4655 72.2008 89.9353 65.2665 92.7364 57.2338C96.5636 46.2593 98.7025 37.6646 99.3077 31.0219C99.4177 29.8146 99.4637 27.7834 99.4454 25.8197C99.4269 23.8251 99.3426 22.0737 99.2276 21.3744C98.6768 18.0225 98.0968 16.1356 96.9005 13.6986C95.5777 11.004 93.8201 9.07585 91.7355 7.86955C89.6527 6.66445 87.1478 6.12484 84.2374 6.35784C78.4225 6.82354 71.3516 9.86724 65.4249 14.5805C62.6265 16.806 60.1888 19.195 56.837 23.0199C56.1424 23.8126 54.9678 25.2314 53.9532 26.4897C56.8786 26.5109 59.8087 26.952 61.7813 27.7553C63.9961 28.6572 65.7861 29.8898 67.0527 31.5063C68.3292 33.1353 69.0057 35.0686 69.1212 37.2436C69.2467 39.6095 68.7773 41.4182 67.5245 43.7631C67.2957 44.1915 67.0056 44.6812 66.6876 45.1869C66.9992 45.1226 67.2948 45.0667 67.5616 45.0248C68.3474 44.9014 69.5474 44.889 70.6368 44.933C71.7223 44.9768 72.9117 45.0853 73.6681 45.2738L73.9678 45.3529C75.4524 45.7702 76.7186 46.4905 77.7521 47.5902C78.8388 48.7469 79.5887 50.2395 80.1212 52.0248L80.2149 52.3656C80.4056 53.1437 80.4169 53.8637 80.42 55.893C80.426 59.7659 80.0497 62.118 78.8292 65.8549C75.5968 75.7513 68.5697 84.9778 59.9874 90.5756C54.6346 94.0664 49.3429 95.9264 43.7481 96.2104C40.7734 96.3614 38.3194 96.1404 36.2696 95.3474C34.17 94.5344 32.6111 93.1664 31.3634 91.2524C29.5758 88.51 28.6055 85.1943 28.086 80.5707C27.8046 78.0646 27.7854 75.8317 28.0226 73.2983C28.6737 66.3456 30.6113 59.3828 34.4776 49.8891C35.9759 46.2101 38.2465 41.3919 39.9435 38.2973C40.5536 37.1844 41.7054 35.2457 42.7355 33.5746C42.36 33.74 42.0083 33.8984 41.7081 34.0414C37.5463 36.0247 32.4428 39.3785 28.8897 42.4682C23.2949 47.3334 18.4169 53.6428 14.7218 60.8119L14.3673 61.5082C10.8252 68.5798 8.48797 74.9567 7.34771 80.5658C6.83887 83.0691 6.65563 84.6313 6.61431 87.2416L6.60454 88.4301C6.6024 89.8767 6.60541 90.5838 6.64067 91.1054C6.67294 91.5834 6.73176 91.9044 6.87505 92.5924C7.12557 93.7944 7.4884 95.0254 7.86626 96.0294C8.0552 96.5314 8.24088 96.9584 8.40923 97.2864C8.46083 97.3874 8.50926 97.4744 8.55278 97.5484C8.70081 97.5094 8.88408 97.4594 9.09478 97.3984C9.59229 97.2554 10.2175 97.0644 10.8448 96.8614L13.1759 96.1064L13.4024 96.0334H13.6407L15.0841 96.0354C15.8754 96.0364 16.589 96.0814 17.1446 96.2154C17.4139 96.2804 17.7754 96.3954 18.1007 96.6324C18.4688 96.9004 18.8575 97.3884 18.8575 98.0844C18.8575 98.2224 18.8434 98.4574 18.7384 98.7224C18.6287 98.9984 18.4589 99.2114 18.2813 99.3684C17.9886 99.6274 17.6435 99.7554 17.4562 99.8214C17.0255 99.9734 16.2994 100.157 15.1661 100.438C12.1873 101.179 10.9416 101.405 9.09966 101.49C7.41791 101.568 5.80774 101.407 4.65435 100.857C3.9516 100.522 3.47617 99.9224 3.14849 99.3314C2.81265 98.7264 2.5532 97.9894 2.34575 97.1734C1.93026 95.5384 1.6684 93.3494 1.544 90.6879C1.32809 86.0698 1.91064 81.2799 3.30376 75.9984C5.27257 68.5344 9.44712 59.0185 13.5753 52.5873C19.6317 43.1524 27.4449 35.9745 37.2062 30.891C40.2656 29.2977 44.4042 27.7331 46.9024 27.267L46.9513 27.2553C47.3826 26.6475 48.2139 25.5644 49.0704 24.4721C50.1522 23.0925 51.3754 21.5701 52.1407 20.6703C55.2608 17.002 57.9818 14.2121 60.5343 12.0893C67.2183 6.53045 74.1705 3.29465 81.5753 2.39405L83.7003 2.12645C84.0021 2.08145 84.5262 2.07635 85.0099 2.07855ZM52.672 30.767C52.3336 30.7809 51.7779 30.8314 51.2491 30.894C51.0092 30.9223 50.7866 30.9525 50.6046 30.9799C50.4985 31.1129 50.3634 31.2893 50.2022 31.5102C49.7723 32.0997 49.207 32.9256 48.5841 33.8705C47.3378 35.761 45.9017 38.0679 44.923 39.809C42.3628 44.3628 40.261 48.8759 37.9562 54.7807C34.4738 63.702 32.8504 70.8131 32.8486 76.7328C32.8481 78.4625 33.1914 81.4746 33.5274 82.8012C34.2558 85.6757 35.6309 88.4352 36.9444 89.8861C37.9898 91.0404 39.5256 91.8814 40.9054 92.0994C41.3347 92.1664 42.1663 92.1204 43.2696 91.8874C44.3325 91.6624 45.5072 91.2944 46.5646 90.8334C54.0051 87.5861 60.9716 80.8281 65.5333 72.2875C67.1609 69.2402 68.4547 65.8589 69.3614 62.267C69.9688 59.8608 70.2829 57.4172 70.3058 55.2768C70.329 53.1 70.0491 51.3788 69.5831 50.3324C69.4876 50.1181 69.2865 49.7906 69.0616 49.4975C69.0498 49.482 69.0369 49.468 69.0255 49.4535C69.0042 49.4578 68.982 49.4614 68.9591 49.4662C68.5542 49.5509 67.9987 49.6953 67.3399 49.8891C66.0273 50.2751 64.3887 50.8333 62.8761 51.4301C61.6206 51.9255 61.0917 52.1431 60.7247 52.3481C60.4193 52.5186 60.2234 52.6798 59.6651 53.1918C58.2946 54.4486 56.1539 56.1528 54.879 56.9926C52.9117 58.2885 50.6845 59.0012 48.4483 59.0033C47.9426 59.0038 47.4887 58.9855 47.1026 58.9418C46.7553 58.9024 46.3114 58.8282 45.9239 58.6332C45.7227 58.532 45.4196 58.3403 45.1925 57.9916C44.9325 57.5923 44.8628 57.1248 44.961 56.6928C45.0465 56.317 45.2392 56.0443 45.3761 55.8822C45.5213 55.7102 45.6842 55.569 45.8292 55.4574C48.7432 53.2141 52.457 49.5972 54.6163 46.9047C56.1908 44.9413 57.4877 42.7677 58.0919 41.1625C58.6519 39.6746 58.8643 38.5631 58.8722 37.2328C58.877 36.4115 58.8395 35.942 58.7472 35.5326C58.6554 35.1261 58.4917 34.7004 58.1427 33.9897C57.5366 32.7556 56.8071 31.9553 55.9718 31.4623C55.1351 30.9686 54.0695 30.7097 52.672 30.767Z" fill="#FF3700" stroke="#FF3700" stroke-width="3"/>
<path d="M93.1942 20.5014C93.1647 20.5104 93.1279 20.1782 93.1041 20.1189C92.9902 19.8328 92.7632 19.416 92.3753 19.0399C91.6286 18.3957 91.7397 18.1225 90.5662 17.4699C89.348 16.9124 88.5443 16.8793 87.0224 16.5852C85.4708 16.3966 85.1502 16.9175 83.0605 17.1744C83.0326 17.1789 83.0042 17.1834 82.9757 17.188C80.7929 17.6467 80.7808 18.34 79.2713 19.7152C77.7208 21.1065 76.6254 23.5519 77.0234 24.7427C77.0542 24.882 77.0935 25.0239 77.1432 25.1699C77.4847 26.2352 78.4526 27.336 79.8423 28.0455C81.4326 28.9027 83.7962 28.86 85.784 28.5043C86.0215 28.4651 86.2695 28.416 86.5256 28.3551C88.4615 27.9538 90.5706 26.6138 91.4084 25.7314C92.3625 24.7495 92.5955 24.4279 92.9554 23.1637C93.1415 22.429 93.2714 21.4124 93.1942 20.5014Z" fill="#FF3700"/>
</g>
<defs>
<clipPath id="clip0_325_411">
<rect width="112" height="104" fill="white"/>
</clipPath>
</defs>
</svg>
