<svg width="999" height="112" viewBox="0 0 999 112" fill="none" xmlns="http://www.w3.org/2000/svg">
<path d="M85.0098 11.0781C85.5501 11.0806 86.213 11.0956 86.8906 11.1182C88.2219 11.1625 89.7049 11.2409 90.4355 11.332C92.986 11.6502 94.5793 12.0415 96.9023 12.9238C102.553 15.0698 106.488 19.5602 108.502 25.9062C109.532 29.1518 109.809 31.0319 109.874 35.0029C109.936 38.7783 109.72 41.3608 108.997 45.5527C108.022 51.208 105.808 59.1483 103.078 66.8398C99.943 75.6722 96.4527 82.5146 91.624 89.2578C90.8187 90.3824 89.7383 91.9002 89.2246 92.6289C88.6512 93.4421 88.2389 94.0306 87.8643 94.4062C87.337 94.9349 86.8475 95.0947 86.4111 95.2256C85.4434 95.5157 83.9654 95.5342 82.7734 95.4492C82.1453 95.4045 81.515 95.3247 80.9727 95.21C80.7023 95.1528 80.429 95.0821 80.1777 94.9922C79.9499 94.9106 79.632 94.7759 79.3516 94.5488L79.1045 94.3486L78.2637 93.668L78.6455 92.6553L78.8496 92.1123C78.9801 91.7658 79.278 91.0709 79.5156 90.5527C79.6853 90.1829 79.8791 89.7544 80.1475 89.4229C80.5064 88.9794 80.9181 88.7876 81.1973 88.6641C81.2421 88.6442 81.235 88.6446 81.2178 88.6572C81.2049 88.6666 81.2236 88.6564 81.2871 88.585C81.4409 88.4118 81.6775 88.0899 82.1709 87.3799C86.4654 81.2004 89.9352 74.2661 92.7363 66.2334C96.5635 55.2589 98.7024 46.6642 99.3076 40.0215C99.4176 38.8142 99.4636 36.783 99.4453 34.8193C99.4268 32.8247 99.3425 31.0733 99.2275 30.374C98.6767 27.0221 98.0967 25.1352 96.9004 22.6982C95.5776 20.0036 93.82 18.0754 91.7354 16.8691C89.6526 15.664 87.1477 15.1244 84.2373 15.3574C78.4224 15.8231 71.3515 18.8668 65.4248 23.5801C62.6264 25.8056 60.1887 28.1946 56.8369 32.0195C56.1423 32.8122 54.9677 34.231 53.9531 35.4893C56.8785 35.5105 59.8086 35.9516 61.7812 36.7549C63.996 37.6568 65.7861 38.8894 67.0527 40.5059C68.3292 42.1349 69.0056 44.0682 69.1211 46.2432C69.2466 48.6091 68.7772 50.4178 67.5244 52.7627C67.2956 53.1911 67.0055 53.6808 66.6875 54.1865C66.9991 54.1222 67.2947 54.0663 67.5615 54.0244C68.3473 53.901 69.5473 53.8886 70.6367 53.9326C71.7222 53.9764 72.9116 54.0849 73.668 54.2734L73.9678 54.3525C75.4524 54.7698 76.7185 55.4901 77.752 56.5898C78.8387 57.7465 79.5886 59.2391 80.1211 61.0244L80.2148 61.3652C80.4055 62.1433 80.4168 62.8633 80.4199 64.8926C80.4259 68.7655 80.0496 71.1176 78.8291 74.8545C75.5967 84.7509 68.5696 93.9774 59.9873 99.5752C54.6345 103.066 49.3428 104.926 43.748 105.21C40.7733 105.361 38.3193 105.14 36.2695 104.347C34.1699 103.534 32.611 102.166 31.3633 100.252C29.5757 97.5096 28.6054 94.1939 28.0859 89.5703C27.8045 87.0642 27.7853 84.8313 28.0225 82.2979C28.6736 75.3452 30.6112 68.3824 34.4775 58.8887C35.9758 55.2097 38.2464 50.3915 39.9434 47.2969C40.5535 46.184 41.7053 44.2453 42.7354 42.5742C42.3599 42.7396 42.0082 42.898 41.708 43.041C37.5462 45.0243 32.4427 48.3781 28.8896 51.4678C23.2948 56.333 18.4168 62.6424 14.7217 69.8115L14.3672 70.5078C10.8251 77.5794 8.48792 83.9563 7.34766 89.5654C6.83882 92.0687 6.65558 93.6309 6.61426 96.2412L6.60449 97.4297C6.60235 98.8763 6.60536 99.5834 6.64062 100.105C6.67289 100.583 6.73171 100.904 6.875 101.592C7.12552 102.794 7.48835 104.025 7.86621 105.029C8.05515 105.531 8.24083 105.958 8.40918 106.286C8.46078 106.387 8.50921 106.474 8.55273 106.548C8.70076 106.509 8.88403 106.459 9.09473 106.398C9.59224 106.255 10.2174 106.064 10.8447 105.861L13.1758 105.106L13.4023 105.033H13.6406L15.084 105.035C15.8753 105.036 16.5889 105.081 17.1445 105.215C17.4138 105.28 17.7753 105.395 18.1006 105.632C18.4687 105.9 18.8574 106.388 18.8574 107.084C18.8574 107.222 18.8433 107.457 18.7383 107.722C18.6286 107.998 18.4588 108.211 18.2812 108.368C17.9885 108.627 17.6434 108.755 17.4561 108.821C17.0254 108.973 16.2993 109.157 15.166 109.438C12.1872 110.179 10.9415 110.405 9.09961 110.49C7.41786 110.568 5.80769 110.407 4.6543 109.857C3.95155 109.522 3.47612 108.922 3.14844 108.331C2.8126 107.726 2.55315 106.989 2.3457 106.173C1.93021 104.538 1.66835 102.349 1.54395 99.6875C1.32804 95.0694 1.91059 90.2795 3.30371 84.998C5.27252 77.534 9.44707 68.0181 13.5752 61.5869C19.6316 52.152 27.4448 44.9741 37.2061 39.8906C40.2655 38.2973 44.4041 36.7327 46.9023 36.2666L46.9512 36.2549C47.3825 35.6471 48.2138 34.564 49.0703 33.4717C50.1521 32.0921 51.3753 30.5697 52.1406 29.6699C55.2607 26.0016 57.9817 23.2117 60.5342 21.0889C67.2182 15.53 74.1704 12.2942 81.5752 11.3936L83.7002 11.126C84.002 11.081 84.5261 11.0759 85.0098 11.0781ZM52.6719 39.7666C52.3335 39.7805 51.7778 39.831 51.249 39.8936C51.0091 39.9219 50.7865 39.9521 50.6045 39.9795C50.4984 40.1125 50.3633 40.2889 50.2021 40.5098C49.7722 41.0993 49.2069 41.9252 48.584 42.8701C47.3377 44.7606 45.9016 47.0675 44.9229 48.8086C42.3627 53.3624 40.2609 57.8755 37.9561 63.7803C34.4737 72.7016 32.8504 79.8127 32.8486 85.7324C32.8481 87.4621 33.1913 90.4742 33.5273 91.8008C34.2557 94.6753 35.6308 97.4348 36.9443 98.8857C37.9897 100.04 39.5255 100.881 40.9053 101.099C41.3346 101.166 42.1662 101.12 43.2695 100.887C44.3324 100.662 45.5071 100.294 46.5645 99.833C54.005 96.5857 60.9715 89.8277 65.5332 81.2871C67.1608 78.2398 68.4546 74.8585 69.3613 71.2666C69.9687 68.8604 70.2828 66.4168 70.3057 64.2764C70.3289 62.0996 70.049 60.3784 69.583 59.332C69.4875 59.1177 69.2864 58.7902 69.0615 58.4971C69.0497 58.4816 69.0368 58.4676 69.0254 58.4531C69.0041 58.4574 68.9819 58.461 68.959 58.4658C68.5541 58.5505 67.9986 58.6949 67.3398 58.8887C66.0272 59.2747 64.3886 59.8329 62.876 60.4297C61.6205 60.9251 61.0916 61.1427 60.7246 61.3477C60.4192 61.5182 60.2233 61.6794 59.665 62.1914C58.2945 63.4482 56.1538 65.1524 54.8789 65.9922C52.9116 67.2881 50.6844 68.0008 48.4482 68.0029C47.9425 68.0034 47.4886 67.9851 47.1025 67.9414C46.7552 67.902 46.3113 67.8278 45.9238 67.6328C45.7226 67.5316 45.4195 67.3399 45.1924 66.9912C44.9324 66.5919 44.8627 66.1244 44.9609 65.6924C45.0464 65.3166 45.2391 65.0439 45.376 64.8818C45.5212 64.7098 45.6841 64.5686 45.8291 64.457C48.7431 62.2137 52.4569 58.5968 54.6162 55.9043C56.1907 53.9409 57.4876 51.7673 58.0918 50.1621C58.6518 48.6742 58.8642 47.5627 58.8721 46.2324C58.8769 45.4111 58.8394 44.9416 58.7471 44.5322C58.6553 44.1257 58.4916 43.7 58.1426 42.9893C57.5365 41.7552 56.807 40.9549 55.9717 40.4619C55.135 39.9682 54.0694 39.7093 52.6719 39.7666Z" fill="black" stroke="black" stroke-width="3"/>
<path d="M93.1941 29.5012C93.1646 29.5102 93.1278 29.178 93.104 29.1187C92.9901 28.8326 92.7631 28.4158 92.3752 28.0397C91.6285 27.3955 91.7396 27.1223 90.5661 26.4697C89.3479 25.9122 88.5442 25.8791 87.0223 25.585C85.4707 25.3964 85.1501 25.9173 83.0604 26.1742C83.0325 26.1787 83.0041 26.1832 82.9756 26.1878C80.7928 26.6465 80.7807 27.3398 79.2712 28.715C77.7207 30.1063 76.6253 32.5517 77.0233 33.7425C77.0541 33.8818 77.0934 34.0237 77.1431 34.1697C77.4846 35.235 78.4525 36.3358 79.8422 37.0453C81.4325 37.9025 83.7961 37.8598 85.7839 37.5041C86.0214 37.4649 86.2694 37.4158 86.5255 37.3549C88.4614 36.9536 90.5705 35.6136 91.4083 34.7312C92.3624 33.7493 92.5954 33.4277 92.9553 32.1635C93.1414 31.4288 93.2713 30.4122 93.1941 29.5012Z" fill="black"/>
<path d="M973.671 94.0795C968.722 94.0795 964.199 93.2262 960.103 91.5195C956.007 89.7275 952.679 87.2102 950.119 83.9675C947.559 80.7249 946.066 76.9275 945.639 72.5755H959.335C959.933 75.6475 961.511 78.1649 964.071 80.1275C966.631 82.0902 969.831 83.0715 973.671 83.0715C977.085 83.0715 979.858 82.3462 981.991 80.8955C984.125 79.3595 985.191 77.3542 985.191 74.8795C985.191 72.7462 984.466 71.0822 983.015 69.8875C981.65 68.6929 979.858 67.7542 977.639 67.0715C975.506 66.3889 973.159 65.7915 970.599 65.2795C966.674 64.3409 962.962 63.1889 959.463 61.8235C956.05 60.4582 953.277 58.5809 951.143 56.1915C949.01 53.8022 947.943 50.6022 947.943 46.5915C947.943 42.6662 948.967 39.2955 951.015 36.4795C953.149 33.5782 956.05 31.3595 959.719 29.8235C963.389 28.2875 967.527 27.5195 972.135 27.5195C979.047 27.5195 984.807 29.2689 989.415 32.7675C994.023 36.1809 996.583 41.2155 997.095 47.8715H984.039C983.698 44.8849 982.418 42.5809 980.199 40.9595C978.066 39.3382 975.292 38.5275 971.879 38.5275C968.722 38.5275 966.162 39.1675 964.199 40.4475C962.236 41.6422 961.255 43.4769 961.255 45.9515C961.255 47.6582 961.938 49.1089 963.303 50.3035C964.668 51.4129 966.418 52.3515 968.551 53.1195C970.77 53.8022 973.074 54.4422 975.463 55.0395C979.815 55.9782 983.698 57.1302 987.111 58.4955C990.525 59.8609 993.255 61.7809 995.303 64.2555C997.351 66.7302 998.418 70.1435 998.503 74.4955C998.503 78.4209 997.394 81.8769 995.175 84.8635C993.042 87.7649 990.098 90.0262 986.343 91.6475C982.674 93.2689 978.45 94.0795 973.671 94.0795Z" fill="black"/>
<path d="M909.985 94.0795C903.756 94.0795 898.252 92.6715 893.473 89.8555C888.695 87.0395 884.94 83.1142 882.209 78.0795C879.564 73.0449 878.241 67.2849 878.241 60.7995C878.241 54.0582 879.564 48.2129 882.209 43.2635C884.855 38.3142 888.567 34.4742 893.345 31.7435C898.209 28.9275 903.799 27.5195 910.113 27.5195C916.257 27.5195 921.633 28.8849 926.241 31.6155C930.849 34.2609 934.433 37.8875 936.993 42.4955C939.639 47.1035 940.961 52.3515 940.961 58.2395C940.961 59.4342 940.919 60.4582 940.833 61.3115C940.833 62.1649 940.748 63.1889 940.577 64.3835H891.809C892.065 67.9675 892.961 71.1675 894.497 73.9835C896.033 76.7142 898.124 78.8902 900.769 80.5115C903.415 82.0475 906.444 82.8155 909.857 82.8155C913.527 82.8155 916.641 82.0049 919.201 80.3835C921.847 78.6769 923.809 76.2875 925.089 73.2155H939.169C938.06 77.0555 936.183 80.5542 933.537 83.7115C930.977 86.8689 927.735 89.3862 923.809 91.2635C919.884 93.1409 915.276 94.0795 909.985 94.0795ZM891.937 54.7835H927.137C926.967 49.8342 925.217 45.9515 921.889 43.1355C918.561 40.2342 914.508 38.7835 909.729 38.7835C905.463 38.7835 901.58 40.1062 898.081 42.7515C894.583 45.3969 892.535 49.4075 891.937 54.7835Z" fill="black"/>
<path d="M863.848 92.5443C857.534 92.5443 852.67 91.0083 849.256 87.9363C845.843 84.8643 844.136 79.8296 844.136 72.8323V40.4483H834.536V29.0563H844.136V13.6963H857.704V29.0563H873.832V40.4483H857.704V72.8323C857.704 76.075 858.43 78.251 859.88 79.3603C861.331 80.4696 863.592 81.0243 866.664 81.0243H873.832V92.5443H863.848Z" fill="black"/>
<path d="M799.433 94.0795C793.289 94.0795 787.743 92.7569 782.793 90.1115C777.929 87.3809 774.047 83.4982 771.145 78.4635C768.329 73.4289 766.921 67.4982 766.921 60.6715C766.921 53.8449 768.372 47.9569 771.273 43.0075C774.26 38.0582 778.228 34.2609 783.177 31.6155C788.212 28.8849 793.801 27.5195 799.945 27.5195C806.089 27.5195 811.636 28.8422 816.585 31.4875C821.535 34.1329 825.503 37.9302 828.489 42.8795C831.476 47.8289 832.969 53.7595 832.969 60.6715C832.969 67.1569 831.519 72.9169 828.617 77.9515C825.801 82.9862 821.876 86.9542 816.841 89.8555C811.807 92.6715 806.004 94.0795 799.433 94.0795ZM799.561 82.3035C803.316 82.3035 806.644 81.3649 809.545 79.4875C812.532 77.6102 814.879 75.0502 816.585 71.8075C818.292 68.4795 819.145 64.7249 819.145 60.5435C819.145 56.2769 818.292 52.5649 816.585 49.4075C814.964 46.1649 812.703 43.6902 809.801 41.9835C806.9 40.1915 803.529 39.2955 799.689 39.2955C795.679 39.2955 792.223 40.2342 789.321 42.1115C786.505 43.9889 784.329 46.5489 782.793 49.7915C781.343 52.9489 780.617 56.5755 780.617 60.6715C780.617 65.3649 781.471 69.3329 783.177 72.5755C784.969 75.8182 787.316 78.2502 790.217 79.8715C793.119 81.4929 796.233 82.3035 799.561 82.3035Z" fill="black"/>
<path d="M700.315 92.5435V29.0555H713.371L713.627 38.3995C715.761 34.9009 718.705 32.2129 722.459 30.3355C726.299 28.4582 730.353 27.5195 734.619 27.5195C742.043 27.5195 748.059 29.8662 752.667 34.5595C757.275 39.1675 759.579 46.0795 759.579 55.2955V92.5435H746.011V56.9595C746.011 51.2422 744.731 46.8475 742.171 43.7755C739.611 40.6182 735.771 39.0395 730.651 39.0395C725.617 39.0395 721.563 40.7889 718.491 44.2875C715.419 47.7009 713.883 52.4369 713.883 58.4955V92.5435H700.315Z" fill="black"/>
<path d="M639.086 94.0795C634.137 94.0795 629.614 93.2262 625.518 91.5195C621.422 89.7275 618.094 87.2102 615.534 83.9675C612.974 80.7249 611.481 76.9275 611.054 72.5755H624.75C625.348 75.6475 626.926 78.1649 629.486 80.1275C632.046 82.0902 635.246 83.0715 639.086 83.0715C642.5 83.0715 645.273 82.3462 647.406 80.8955C649.54 79.3595 650.606 77.3542 650.606 74.8795C650.606 72.7462 649.881 71.0822 648.43 69.8875C647.065 68.6929 645.273 67.7542 643.054 67.0715C640.921 66.3889 638.574 65.7915 636.014 65.2795C632.089 64.3409 628.377 63.1889 624.878 61.8235C621.465 60.4582 618.692 58.5809 616.558 56.1915C614.425 53.8022 613.358 50.6022 613.358 46.5915C613.358 42.6662 614.382 39.2955 616.43 36.4795C618.564 33.5782 621.465 31.3595 625.134 29.8235C628.804 28.2875 632.942 27.5195 637.55 27.5195C644.462 27.5195 650.222 29.2689 654.83 32.7675C659.438 36.1809 661.998 41.2155 662.51 47.8715H649.454C649.113 44.8849 647.833 42.5809 645.614 40.9595C643.481 39.3382 640.708 38.5275 637.294 38.5275C634.137 38.5275 631.577 39.1675 629.614 40.4475C627.652 41.6422 626.67 43.4769 626.67 45.9515C626.67 47.6582 627.353 49.1089 628.718 50.3035C630.084 51.4129 631.833 52.3515 633.966 53.1195C636.185 53.8022 638.489 54.4422 640.878 55.0395C645.23 55.9782 649.113 57.1302 652.526 58.4955C655.94 59.8609 658.67 61.7809 660.718 64.2555C662.766 66.7302 663.833 70.1435 663.918 74.4955C663.918 78.4209 662.809 81.8769 660.59 84.8635C658.457 87.7649 655.513 90.0262 651.758 91.6475C648.089 93.2689 643.865 94.0795 639.086 94.0795Z" fill="black"/>
<path d="M593.025 32.8963L600.321 2.94434H614.913L602.497 32.8963H593.025Z" fill="black"/>
<path d="M577.23 17.92C574.756 17.92 572.622 17.0667 570.83 15.36C569.124 13.568 568.27 11.392 568.27 8.832C568.27 6.35734 569.124 4.26667 570.83 2.56001C572.622 0.853335 574.756 0 577.23 0C579.79 0 581.924 0.853335 583.63 2.56001C585.422 4.26667 586.318 6.35734 586.318 8.832C586.318 11.392 585.422 13.568 583.63 15.36C581.924 17.0667 579.79 17.92 577.23 17.92ZM570.446 92.544V29.056H584.014V92.544H570.446Z" fill="black"/>
<path d="M521.992 94.0795C517.896 94.0795 514.142 93.3542 510.728 91.9035C507.315 90.3675 504.584 88.1489 502.536 85.2475C500.488 82.3462 499.464 78.8475 499.464 74.7515C499.464 69.8875 500.659 66.0049 503.048 63.1035C505.523 60.1169 508.808 57.9409 512.904 56.5755C517.086 55.1249 521.651 54.3995 526.6 54.3995H542.728C542.728 50.7302 542.131 47.7862 540.936 45.5675C539.742 43.2635 538.12 41.5995 536.072 40.5755C534.024 39.4662 531.635 38.9115 528.904 38.9115C525.32 38.9115 522.163 39.7649 519.432 41.4715C516.787 43.0929 515.123 45.6955 514.44 49.2795H500.744C501.171 44.6715 502.707 40.7462 505.352 37.5035C508.083 34.2609 511.539 31.7862 515.72 30.0795C519.902 28.3729 524.339 27.5195 529.032 27.5195C535.176 27.5195 540.254 28.6715 544.264 30.9755C548.36 33.1942 551.39 36.3089 553.352 40.3195C555.4 44.3302 556.424 48.8955 556.424 54.0155V73.4715C556.51 75.9462 557.022 77.7809 557.96 78.9755C558.984 80.0849 560.776 80.7249 563.336 80.8955V92.5435C559.923 92.5435 556.936 92.1595 554.376 91.3915C551.902 90.6235 549.854 89.4715 548.232 87.9355C546.611 86.3142 545.331 84.2662 544.392 81.7915C542.344 85.2049 539.358 88.1062 535.432 90.4955C531.507 92.8849 527.027 94.0795 521.992 94.0795ZM525.192 82.9435C528.691 82.9435 531.763 82.0902 534.408 80.3835C537.054 78.5915 539.102 76.2875 540.552 73.4715C542.003 70.5702 542.728 67.4555 542.728 64.1275V63.8715H527.624C525.15 63.8715 522.803 64.1702 520.584 64.7675C518.451 65.3649 516.702 66.3889 515.336 67.8395C514.056 69.2049 513.416 71.1249 513.416 73.5995C513.416 76.8422 514.568 79.2315 516.872 80.7675C519.176 82.2182 521.95 82.9435 525.192 82.9435Z" fill="black"/>
<path d="M442.98 92.5443V2.94434H456.548V55.8083L480.1 29.0563H497.252L469.22 59.2643L499.3 92.5443H481.892L456.548 62.5923V92.5443H442.98Z" fill="black"/>
<path d="M346.16 92.5435V29.0555H359.216L359.472 38.3995C361.606 34.9009 364.55 32.2129 368.304 30.3355C372.144 28.4582 376.198 27.5195 380.464 27.5195C387.888 27.5195 393.904 29.8662 398.512 34.5595C403.12 39.1675 405.424 46.0795 405.424 55.2955V92.5435H391.856V56.9595C391.856 51.2422 390.576 46.8475 388.016 43.7755C385.456 40.6182 381.616 39.0395 376.496 39.0395C371.462 39.0395 367.408 40.7889 364.336 44.2875C361.264 47.7009 359.728 52.4369 359.728 58.4955V92.5435H346.16Z" fill="black"/>
<path d="M301.439 94.0797C296.234 94.0797 291.754 93.013 287.999 90.8797C284.245 88.661 281.343 85.5037 279.295 81.4077C277.247 77.2263 276.223 72.2343 276.223 66.4317V29.0557H289.663V64.6397C289.663 70.2717 290.943 74.6663 293.503 77.8237C296.149 80.981 299.989 82.5597 305.023 82.5597C310.229 82.5597 314.325 80.853 317.311 77.4397C320.298 73.941 321.791 69.1623 321.791 63.1037V29.0557H335.359V92.5437H322.303L322.047 83.0717C319.914 86.5703 317.013 89.301 313.343 91.2637C309.759 93.141 305.791 94.0797 301.439 94.0797Z" fill="black"/>
<path d="M234.965 92.5435V29.0555H248.021L248.405 39.8075C250.539 35.9675 253.44 32.9809 257.109 30.8475C260.864 28.6289 265.259 27.5195 270.293 27.5195V41.7275H266.581C260.523 41.7275 256 43.3062 253.013 46.4635C250.027 49.5355 248.533 54.2715 248.533 60.6715V92.5435H234.965Z" fill="black"/>
<path d="M187.032 94.0795C182.936 94.0795 179.182 93.3542 175.768 91.9035C172.355 90.3675 169.624 88.1489 167.576 85.2475C165.528 82.3462 164.504 78.8475 164.504 74.7515C164.504 69.8875 165.699 66.0049 168.088 63.1035C170.563 60.1169 173.848 57.9409 177.944 56.5755C182.126 55.1249 186.691 54.3995 191.64 54.3995H207.768C207.768 50.7302 207.171 47.7862 205.976 45.5675C204.782 43.2635 203.16 41.5995 201.112 40.5755C199.064 39.4662 196.675 38.9115 193.944 38.9115C190.36 38.9115 187.203 39.7649 184.472 41.4715C181.827 43.0929 180.163 45.6955 179.48 49.2795H165.784C166.211 44.6715 167.747 40.7462 170.392 37.5035C173.123 34.2609 176.579 31.7862 180.76 30.0795C184.942 28.3729 189.379 27.5195 194.072 27.5195C200.216 27.5195 205.294 28.6715 209.304 30.9755C213.4 33.1942 216.43 36.3089 218.392 40.3195C220.44 44.3302 221.464 48.8955 221.464 54.0155V73.4715C221.55 75.9462 222.062 77.7809 223 78.9755C224.024 80.0849 225.816 80.7249 228.376 80.8955V92.5435C224.963 92.5435 221.976 92.1595 219.416 91.3915C216.942 90.6235 214.894 89.4715 213.272 87.9355C211.651 86.3142 210.371 84.2662 209.432 81.7915C207.384 85.2049 204.398 88.1062 200.472 90.4955C196.547 92.8849 192.067 94.0795 187.032 94.0795ZM190.232 82.9435C193.731 82.9435 196.803 82.0902 199.448 80.3835C202.094 78.5915 204.142 76.2875 205.592 73.4715C207.043 70.5702 207.768 67.4555 207.768 64.1275V63.8715H192.664C190.19 63.8715 187.843 64.1702 185.624 64.7675C183.491 65.3649 181.742 66.3889 180.376 67.8395C179.096 69.2049 178.456 71.1249 178.456 73.5995C178.456 76.8422 179.608 79.2315 181.912 80.7675C184.216 82.2182 186.99 82.9435 190.232 82.9435Z" fill="black"/>
</svg>
